rat_kapali_dongu_referansli_zemin_x10_YAVAS4x
version=1
nRows=41
nColumns=15
inDegrees=yes
endheader
time	sacrum_pitch	sacrum_roll	sacrum_yaw	sacrum_x	sacrum_y	sacrum_z	sacroiliac_flx	hip_flx	hip_add	hip_int	knee_flx	ankle_flx	ankle_add	ankle_int
2.708800	22.370217	0.000000	0.000000	0.000000	0.672500	0.000000	3.700000	41.917796	-10.000000	0.000000	-139.428712	24.183860	-5.000000	0.000000
2.709600	22.370217	0.000000	0.000000	0.000000	0.672500	0.000000	3.700000	42.038742	-10.000000	0.000000	-139.409495	24.273652	-5.000000	0.000000
2.710400	22.370217	0.000000	0.000000	0.000000	0.672500	0.000000	3.700000	42.159697	-10.000000	0.000000	-139.389767	24.362683	-5.000000	0.000000
2.711200	22.370217	0.000000	0.000000	0.000000	0.672500	0.000000	3.700000	42.280659	-10.000000	0.000000	-139.369527	24.450949	-5.000000	0.000000
2.712000	22.370217	0.000000	0.000000	0.000000	0.672500	0.000000	3.700000	42.401625	-10.000000	0.000000	-139.348773	24.538447	-5.000000	0.000000
2.712800	22.370217	0.000000	0.000000	0.000000	0.672500	0.000000	3.700000	42.522590	-10.000000	0.000000	-139.327505	24.625174	-5.000000	0.000000
2.713600	22.370217	0.000000	0.000000	0.000000	0.672500	0.000000	3.700000	42.643553	-10.000000	0.000000	-139.305720	24.711126	-5.000000	0.000000
2.714400	22.370217	0.000000	0.000000	0.000000	0.672500	0.000000	3.700000	42.764510	-10.000000	0.000000	-139.283417	24.796299	-5.000000	0.000000
2.715200	22.370217	0.000000	0.000000	0.000000	0.672500	0.000000	3.700000	42.885458	-10.000000	0.000000	-139.260596	24.880691	-5.000000	0.000000
2.716000	22.370217	0.000000	0.000000	0.000000	0.672500	0.000000	3.700000	43.006393	-10.000000	0.000000	-139.237253	24.964297	-5.000000	0.000000
2.716800	22.370217	0.000000	0.000000	0.000000	0.672500	0.000000	3.700000	43.127313	-10.000000	0.000000	-139.213389	25.047117	-5.000000	0.000000
2.717600	22.370217	0.000000	0.000000	0.000000	0.672500	0.000000	3.700000	43.248214	-10.000000	0.000000	-139.189002	25.129148	-5.000000	0.000000
2.718400	22.370217	0.000000	0.000000	0.000000	0.672500	0.000000	3.700000	43.369092	-10.000000	0.000000	-139.164090	25.210388	-5.000000	0.000000
2.719200	22.370217	0.000000	0.000000	0.000000	0.672500	0.000000	3.700000	43.489945	-10.000000	0.000000	-139.138653	25.290835	-5.000000	0.000000
2.720000	22.370217	0.000000	0.000000	0.000000	0.672500	0.000000	3.700000	43.610769	-10.000000	0.000000	-139.112687	25.370484	-5.000000	0.000000
2.720800	22.370217	0.000000	0.000000	0.000000	0.672500	0.000000	3.700000	43.731560	-10.000000	0.000000	-139.086193	25.449332	-5.000000	0.000000
2.721600	22.370217	0.000000	0.000000	0.000000	0.672500	0.000000	3.700000	43.852316	-10.000000	0.000000	-139.059169	25.527374	-5.000000	0.000000
2.722400	22.370217	0.000000	0.000000	0.000000	0.672500	0.000000	3.700000	43.973033	-10.000000	0.000000	-139.031613	25.604607	-5.000000	0.000000
2.723200	22.370217	0.000000	0.000000	0.000000	0.672500	0.000000	3.700000	44.093707	-10.000000	0.000000	-139.003523	25.681025	-5.000000	0.000000
2.724000	22.370217	0.000000	0.000000	0.000000	0.672500	0.000000	3.700000	44.214335	-10.000000	0.000000	-138.974898	25.756624	-5.000000	0.000000
2.724800	22.370217	0.000000	0.000000	0.000000	0.672500	0.000000	3.700000	44.334915	-10.000000	0.000000	-138.945737	25.831392	-5.000000	0.000000
2.725600	22.370217	0.000000	0.000000	0.000000	0.672500	0.000000	3.700000	44.455442	-10.000000	0.000000	-138.916038	25.905316	-5.000000	0.000000
2.726400	22.370217	0.000000	0.000000	0.000000	0.672500	0.000000	3.700000	44.575914	-10.000000	0.000000	-138.885800	25.978380	-5.000000	0.000000
2.727200	22.370217	0.000000	0.000000	0.000000	0.672500	0.000000	3.700000	44.696327	-10.000000	0.000000	-138.855020	26.050571	-5.000000	0.000000
2.728000	22.370217	0.000000	0.000000	0.000000	0.672500	0.000000	3.700000	44.816679	-10.000000	0.000000	-138.823699	26.121878	-5.000000	0.000000
2.728800	22.370217	0.000000	0.000000	0.000000	0.672500	0.000000	3.700000	44.936966	-10.000000	0.000000	-138.791834	26.192292	-5.000000	0.000000
2.729600	22.370217	0.000000	0.000000	0.000000	0.672500	0.000000	3.700000	45.057185	-10.000000	0.000000	-138.759425	26.261803	-5.000000	0.000000
2.730400	22.370217	0.000000	0.000000	0.000000	0.672500	0.000000	3.700000	45.177332	-10.000000	0.000000	-138.726469	26.330399	-5.000000	0.000000
2.731200	22.370217	0.000000	0.000000	0.000000	0.672500	0.000000	3.700000	45.297405	-10.000000	0.000000	-138.692966	26.398060	-5.000000	0.000000
2.732000	22.370217	0.000000	0.000000	0.000000	0.672500	0.000000	3.700000	45.417400	-10.000000	0.000000	-138.658913	26.464760	-5.000000	0.000000
2.732800	22.370217	0.000000	0.000000	0.000000	0.672500	0.000000	3.700000	45.537315	-10.000000	0.000000	-138.624310	26.530461	-5.000000	0.000000
2.733600	22.370217	0.000000	0.000000	0.000000	0.672500	0.000000	3.700000	45.657148	-10.000000	0.000000	-138.589155	26.595124	-5.000000	0.000000
2.734400	22.370217	0.000000	0.000000	0.000000	0.672500	0.000000	3.700000	45.776896	-10.000000	0.000000	-138.553446	26.658707	-5.000000	0.000000
2.735200	22.370217	0.000000	0.000000	0.000000	0.672500	0.000000	3.700000	45.896556	-10.000000	0.000000	-138.517183	26.721170	-5.000000	0.000000
2.736000	22.370217	0.000000	0.000000	0.000000	0.672500	0.000000	3.700000	46.016125	-10.000000	0.000000	-138.480363	26.782476	-5.000000	0.000000
2.736800	22.370217	0.000000	0.000000	0.000000	0.672500	0.000000	3.700000	46.135602	-10.000000	0.000000	-138.442988	26.842593	-5.000000	0.000000
2.737600	22.370217	0.000000	0.000000	0.000000	0.672500	0.000000	3.700000	46.254983	-10.000000	0.000000	-138.405054	26.901500	-5.000000	0.000000
2.738400	22.370217	0.000000	0.000000	0.000000	0.672500	0.000000	3.700000	46.374264	-10.000000	0.000000	-138.366563	26.959188	-5.000000	0.000000
2.739200	22.370217	0.000000	0.000000	0.000000	0.672500	0.000000	3.700000	46.493442	-10.000000	0.000000	-138.327515	27.015660	-5.000000	0.000000
2.740000	22.370217	0.000000	0.000000	0.000000	0.672500	0.000000	3.700000	46.612513	-10.000000	0.000000	-138.287910	27.070930	-5.000000	0.000000
2.740800	22.370217	0.000000	0.000000	0.000000	0.672500	0.000000	3.700000	46.731472	-10.000000	0.000000	-138.247749	27.125021	-5.000000	0.000000
